<svg width="28" height="28" viewBox="0 0 28 28" fill="none" xmlns="http://www.w3.org/2000/svg">
<g clip-path="url(#clip0_2345_143570)">
<path d="M19.6059 7.88578C21.4574 6.70219 23.3559 1.37016 21.2699 0.854536C19.1254 0.362348 18.4574 5.99907 19.6059 7.88578ZM19.8871 8.34282C22.6059 8.35453 28.1606 3.91313 26.2387 1.97953C24.3168 0.0576608 19.8754 5.61235 19.8871 8.34282ZM20.3441 8.61235C22.2191 9.78422 27.8676 9.09282 27.3754 6.98344C26.8715 4.86235 21.5277 6.7725 20.3441 8.61235ZM1.11367 27.0576C1.71132 27.667 2.62539 28.0537 3.7621 27.3389L9.64492 23.6592L8.23867 22.2647C7.92226 21.9483 7.92226 21.4795 8.22695 21.1748C8.53164 20.8701 9.00039 20.8584 9.31679 21.1748L10.9809 22.8154L12.2934 21.9834L10.3246 20.085C10.0082 19.7686 10.0199 19.2998 10.3129 18.9951C10.6293 18.6904 11.0981 18.6787 11.4027 18.9834L13.6293 21.1631L19.3481 17.5537C23.3441 15.0459 24.059 11.1318 21.0707 8.09672L20.0629 7.07719C17.4613 4.44047 14.1098 4.67485 11.6371 7.46391L14.7543 10.5342C15.0707 10.8506 15.0707 11.3076 14.7777 11.6123C14.4731 11.9287 14.0043 11.9404 13.6879 11.624L10.6879 8.69438L9.86757 9.98344L12.1059 12.1748C12.4223 12.4912 12.4223 12.9717 12.1176 13.2647C11.8012 13.5693 11.3441 13.5811 11.0277 13.2647L9.03554 11.3311L0.808983 24.374C0.152733 25.4287 0.422264 26.3662 1.11367 27.0576Z" fill="#FF8A00"/>
</g>
<defs>
<clipPath id="clip0_2345_143570">
<rect width="27.3289" height="27.3384" fill="white" transform="translate(0.433594 0.386719)"/>
</clipPath>
</defs>
</svg>
